/* XPM */
static char *ac0c6942f16c49a589b85b7a71823293a2tsPsZg1ijNtqSW[] = {
/* columns rows colors chars-per-pixel */
"64 64 23 1 ",
"  c None",
". c #26211D",
"X c #502417",
"o c #5E351E",
"O c #6B3633",
"+ c #3C5014",
"@ c #41671F",
"# c #734630",
"$ c #6B6335",
"% c #427D76",
"& c #7F7D7C",
"* c #AC302A",
"= c #C74D39",
"- c #854440",
"; c #855B40",
": c #AE5F5B",
"> c #DB764F",
", c #8E8C3A",
"< c #CD906D",
"1 c #A7A49F",
"2 c #B2AD93",
"3 c #F0C090",
"4 c #EDE4CC",
/* pixels */
"                                                                ",
"                                                                ",
"                                                                ",
"                                                                ",
"                                                                ",
"                                                                ",
"                                                                ",
"                                                                ",
"                                                                ",
"                                                                ",
"                                                                ",
"                                                                ",
"                                                                ",
"                                                                ",
"                                                                ",
"                                                                ",
"                                                                ",
"                                                                ",
"                                                                ",
"                                                                ",
"                                                                ",
"                                                                ",
"                           . .......                            ",
"                          .=.>>>>>>>.                           ",
"                           .>====>>>>.                          ",
"                       .   .========>.                          ",
"                      .;.  .*==**====.                          ",
"                     . .;...*=*<<*===.                          ",
"                    .;.;#..33*<333***.                          ",
"                    1.;##. .3*<3%33%.                           ",
"                    1 ...#. .<<33333...                         ",
"                    1 &  .#.:-<333<3.,,.                        ",
"                    1 &   .:-+@@++@..,$.                        ",
"                    1 1  ..-+@@+44+@.,.                         ",
"                    1 1 .O.-@@@2442@3$3.                        ",
"                     1   ..O@++oooo+.$3.                        ",
"                     1     .+33oXXo+.$.                         ",
"                            ..o...o..$.                         ",
"                             ..  .. .$.                         ",
"                                                                ",
"                                                                ",
"                                                                ",
"                                                                ",
"                                                                ",
"                                                                ",
"                                                                ",
"                                                                ",
"                                                                ",
"                                                                ",
"                                                                ",
"                                                                ",
"                                                                ",
"                                                                ",
"                                                                ",
"                                                                ",
"                                                                ",
"                                                                ",
"                                                                ",
"                                                                ",
"                                                                ",
"                                                                ",
"                                                                ",
"                                                                ",
"                                                                "
};
